<?xml version="1.0" encoding="iso-8859-1"?>
<!-- Generator: Adobe Illustrator 21.0.0, SVG Export Plug-In . SVG Version: 6.00 Build 0)  -->
<svg xmlns="http://www.w3.org/2000/svg" xmlns:xlink="http://www.w3.org/1999/xlink" version="1.1" id="Capa_1" x="0px" y="0px" viewBox="0 0 510.539 510.539" style="enable-background:new 0 0 510.539 510.539;" xml:space="preserve" width="512" height="512">
<g>
	<path d="M473.039,29.768h-325.01c-4.143,0-7.5,3.358-7.5,7.5s3.357,7.5,7.5,7.5h325.01c12.406,0,22.5,10.093,22.5,22.5v265.191   h-49.5c-4.142,0-7.5,3.358-7.5,7.5s3.358,7.5,7.5,7.5h49.5v31.037c0,12.407-10.094,22.5-22.5,22.5H117.156   c-4.143,0-7.5,3.358-7.5,7.5c0,4.142,3.357,7.5,7.5,7.5h69.41l-13.243,49.775h-25.294c-4.143,0-7.5,3.358-7.5,7.5   c0,4.142,3.357,7.5,7.5,7.5h214.48c4.143,0,7.5-3.358,7.5-7.5c0-4.142-3.357-7.5-7.5-7.5h-25.294l-13.243-49.775h149.066   c20.678,0,37.5-16.822,37.5-37.5V67.268C510.539,46.59,493.717,29.768,473.039,29.768z M321.694,465.771h-132.85l13.243-49.775   h106.363L321.694,465.771z" fill="#D9D9D9"/>
	<path d="M87.156,400.996H37.5c-12.406,0-22.5-10.093-22.5-22.5v-31.037h401.039c4.143,0,7.5-3.358,7.5-7.5s-3.357-7.5-7.5-7.5H15   V67.268c0-12.407,10.094-22.5,22.5-22.5h80.529c4.143,0,7.5-3.358,7.5-7.5s-3.357-7.5-7.5-7.5H37.5C16.822,29.768,0,46.59,0,67.268   v311.227c0,20.678,16.822,37.5,37.5,37.5h49.656c4.143,0,7.5-3.358,7.5-7.5C94.656,404.354,91.299,400.996,87.156,400.996z" fill="#D9D9D9"/>
</g>















</svg>
