<svg id="Capa_1" enable-background="new 0 0 511.919 511.919" height="512" viewBox="0 0 511.919 511.919" width="512" xmlns="http://www.w3.org/2000/svg"><g><path d="m462.154 409.439c-10.36-36.2-65.8-53-106.28-65.24-11.64-3.52-21.72-6.56-29.24-9.6h-.04c-2.871-1.06-5.631-2.4-8.24-4-12.76-8.24-12.96-28.92-11.72-41.68 20.4-14.96 36.6-38.8 45.12-68.36 5.72.2 11.6-4.84 16.88-14.88 4.883-9.704 8.23-20.108 9.92-30.84 3.88-24.8-3.76-36-12.76-38.52 5.64-41 6.2-100.64-34.84-114.32-.296-.109-.606-.176-.92-.2-7.464-.47-14.93.875-21.76 3.92-.92-8.8-4.56-22.64-18.36-25.12-16.24-2.96-120.88 3.16-137.952 62.16-6.715 23.932-8.779 48.93-6.08 73.64-8.92 2.64-16.4 13.88-12.48 38.44 2.56 16.32 10.08 36.4 19.48 43.24 2.068 1.641 4.64 2.518 7.28 2.48 8.48 29.6 24.72 53.44 45.16 68.4 1.24 12.72 1 33.36-11.76 41.64-2.625 1.607-5.398 2.959-8.28 4.04h-.04c-7.48 3-17.52 6.04-29.12 9.56-40.52 12.24-96.04 29-106.4 65.24-7.4 26-11.92 67.76-14.4 98.16-.188 2.19 1.435 4.118 3.625 4.306.125.011.25.016.375.014h433.28c1.123.012 2.199-.453 2.96-1.28.74-.833 1.114-1.928 1.04-3.04-2.488-30.44-7.008-72.16-14.448-98.16zm-295.392-195c-.311-1.278-1.242-2.315-2.48-2.76-1.251-.439-2.637-.245-3.72.52-.185.156-.404.266-.64.32-.857-.027-1.677-.353-2.32-.92-6.44-4.64-13.76-21.72-16.32-38.04-2.36-14.92-.08-26.04 5.6-29 1.4 10.798 3.797 21.444 7.16 31.8.578 1.598 2.101 2.656 3.8 2.64h13.32c1.901 0 3.54-1.337 3.92-3.2l13.28-64.76c16.64 2.68 80.08 10.32 103.6-26.2 4.88 9.88 15.04 26.44 30.6 32.88l14.312 58.24c.423 1.796 2.035 3.059 3.88 3.04h13.32c1.789-.005 3.357-1.197 3.84-2.92.44-1.64 3.84-14.28 6.64-31.72 6.04 2.72 8.48 14 6.08 29.2-1.575 9.871-4.637 19.446-9.08 28.4-4.32 8.2-8.12 10.84-9.64 10.56-.245-.082-.475-.203-.68-.36-1.06-.755-2.431-.921-3.64-.44-1.226.44-2.155 1.458-2.48 2.72-12.96 50.12-48.8 83.8-89.152 83.8s-76.208-33.68-89.2-83.8zm31.16 122.88c13.72-8.88 16.48-26.92 15.8-42.88 25.977 15.733 58.543 15.733 84.52 0-.72 15.96 2.04 34 15.76 42.88 1.391.884 2.834 1.686 4.32 2.4-34.451 34.438-90.287 34.455-124.76.04 1.494-.734 2.946-1.549 4.352-2.44z"/></g></svg>