<?xml version="1.0" encoding="iso-8859-1"?>
<!-- Generator: Adobe Illustrator 21.0.0, SVG Export Plug-In . SVG Version: 6.00 Build 0)  -->
<svg xmlns="http://www.w3.org/2000/svg" xmlns:xlink="http://www.w3.org/1999/xlink" version="1.1" id="Capa_1" x="0px" y="0px" viewBox="0 0 512.088 512.088" style="enable-background:new 0 0 512.088 512.088;" xml:space="preserve" width="512" height="512">
<g>
	<path d="M128.043,405.674c4.142,0,7.5-3.358,7.5-7.5V123.847c0-4.142-3.358-7.5-7.5-7.5c-4.142,0-7.5,3.358-7.5,7.5v274.328   C120.543,402.316,123.901,405.674,128.043,405.674z"/>
	<path d="M384.044,263.544c-4.142,0-7.5,3.358-7.5,7.5v203.544c0,12.407-10.093,22.5-22.5,22.5H158.043   c-12.407,0-22.5-10.093-22.5-22.5v-46.414c0-4.142-3.358-7.5-7.5-7.5c-4.142,0-7.5,3.358-7.5,7.5v46.414   c0,20.678,16.822,37.5,37.5,37.5h196.001c20.678,0,37.5-16.822,37.5-37.5V271.044C391.544,266.902,388.187,263.544,384.044,263.544   z"/>
	<path d="M354.044,0H158.043c-20.678,0-37.5,16.822-37.5,37.5v56.347c0,4.142,3.358,7.5,7.5,7.5c4.142,0,7.5-3.358,7.5-7.5V37.5   c0-12.407,10.093-22.5,22.5-22.5h31.37c7.614,15.287,23.369,25.233,40.735,25.233h51.791c17.366,0,33.121-9.946,40.735-25.233   h31.37c12.407,0,22.5,10.093,22.5,22.5v203.544c0,4.142,3.358,7.5,7.5,7.5c4.142,0,7.5-3.358,7.5-7.5V37.5   C391.544,16.822,374.722,0,354.044,0z M281.939,25.233h-51.791c-8.863,0-17.099-3.866-22.778-10.233h97.348   C299.038,21.367,290.802,25.233,281.939,25.233z"/>
	<path d="M286.863,478.473c4.142,0,7.5-3.358,7.5-7.5c0-4.142-3.358-7.5-7.5-7.5h-61.639c-4.142,0-7.5,3.358-7.5,7.5   c0,4.142,3.358,7.5,7.5,7.5H286.863z" />
</g>















</svg>
